<svg xmlns="http://www.w3.org/2000/svg" width="70" height="86" viewBox="0 0 70 86">
<defs><linearGradient id="wing" x1="0" y1="0" x2="1" y2="1"><stop offset="0" stop-color="#41558E"/><stop offset="0.55" stop-color="#2B3A67"/><stop offset="1" stop-color="#1A2D4D"/></linearGradient><linearGradient id="innerSky" x1="0.2" y1="0" x2="0.8" y2="1"><stop offset="0" stop-color="#5B6FAE" stop-opacity="0.7"/><stop offset="0.6" stop-color="#9B59B6" stop-opacity="0.55"/><stop offset="1" stop-color="#E8949E" stop-opacity="0.4"/></linearGradient></defs>
<path d="M14 10c20 8 36 25 40 48-6 9-18 16-30 18C15 61 9 39 14 10z" fill="url(#wing)" stroke="#F0D68A" stroke-width="2.6"/>
<path d="M23 21c14 8 23 20 25 36-4 6-10 10-18 12-7-11-11-28-7-48z" fill="url(#innerSky)"/>
<path d="M24 30c8 6 14 14 17 24M21 42c8 5 14 10 18 19" fill="none" stroke="#F0D68A" stroke-opacity="0.35" stroke-width="2" stroke-linecap="round"/>
</svg>